<svg width="24" height="24" viewBox="0 0 24 24" fill="none" xmlns="http://www.w3.org/2000/svg">
<path id="Vector" d="M6.342 20.614H4.144C4.02333 20.614 3.9076 20.5661 3.82227 20.4807C3.73694 20.3954 3.689 20.2797 3.689 20.159V13.889C3.68926 13.7685 3.73732 13.653 3.82262 13.5679C3.90792 13.4828 4.0235 13.435 4.144 13.435H6.342C6.46267 13.435 6.5784 13.483 6.66373 13.5683C6.74906 13.6536 6.797 13.7693 6.797 13.89V20.159C6.797 20.2797 6.74906 20.3954 6.66373 20.4807C6.5784 20.5661 6.46267 20.614 6.342 20.614ZM4.6 19.704H5.887V14.345H4.6V19.704ZM10.847 20.614H8.65C8.52933 20.614 8.4136 20.5661 8.32827 20.4807C8.24294 20.3954 8.195 20.2797 8.195 20.159V10.096C8.195 9.97534 8.24294 9.85961 8.32827 9.77428C8.4136 9.68895 8.52933 9.64102 8.65 9.64102H10.847C10.9677 9.64102 11.0834 9.68895 11.1687 9.77428C11.2541 9.85961 11.302 9.97534 11.302 10.096V20.163C11.3009 20.283 11.2525 20.3977 11.1673 20.4822C11.0821 20.5666 10.967 20.614 10.847 20.614ZM9.105 19.704H10.392V10.548H9.105V19.704ZM15.35 20.614H13.155C13.0343 20.614 12.9186 20.5661 12.8333 20.4807C12.7479 20.3954 12.7 20.2797 12.7 20.159V12.59C12.7 12.4693 12.7479 12.3536 12.8333 12.2683C12.9186 12.183 13.0343 12.135 13.155 12.135H15.35C15.4098 12.1349 15.469 12.1466 15.5243 12.1694C15.5795 12.1922 15.6298 12.2257 15.672 12.268C15.7143 12.3103 15.7478 12.3605 15.7706 12.4157C15.7935 12.471 15.8051 12.5302 15.805 12.59V20.159C15.8053 20.2188 15.7937 20.2781 15.7709 20.3334C15.7481 20.3888 15.7146 20.439 15.6723 20.4813C15.63 20.5236 15.5798 20.5571 15.5244 20.5799C15.4691 20.6027 15.4098 20.6143 15.35 20.614ZM13.61 19.704H14.895V13.045H13.61V19.704ZM19.855 20.614H17.66C17.5393 20.614 17.4236 20.5661 17.3383 20.4807C17.2529 20.3954 17.205 20.2797 17.205 20.159V8.82201C17.2049 8.76223 17.2165 8.703 17.2394 8.64774C17.2622 8.59248 17.2957 8.54226 17.338 8.49999C17.3802 8.45771 17.4305 8.4242 17.4857 8.40138C17.541 8.37856 17.6002 8.36688 17.66 8.36701H19.855C19.9149 8.36662 19.9743 8.37811 20.0297 8.40082C20.0852 8.42353 20.1356 8.45702 20.178 8.49933C20.2204 8.54165 20.254 8.59196 20.2768 8.64735C20.2996 8.70274 20.3113 8.7621 20.311 8.82201V20.152C20.3117 20.2124 20.3004 20.2722 20.2778 20.3282C20.2551 20.3842 20.2217 20.4351 20.1793 20.478C20.1369 20.521 20.0864 20.5551 20.0307 20.5785C19.9751 20.6018 19.9154 20.6139 19.855 20.614ZM18.115 19.704H19.4V9.28402H18.115V19.704ZM5.75 9.26301L9.873 5.67702L13.958 8.01402C14.0395 8.06084 14.1334 8.08118 14.227 8.07223C14.3205 8.06327 14.4089 8.02545 14.48 7.96402L18.849 4.20202C18.8942 4.16308 18.9312 4.11562 18.9581 4.06236C18.9849 4.0091 19.001 3.95108 19.0054 3.8916C19.0098 3.83213 19.0025 3.77236 18.9838 3.71573C18.9651 3.65909 18.9354 3.60669 18.8965 3.56152C18.8576 3.51634 18.8101 3.47928 18.7568 3.45244C18.7036 3.42561 18.6456 3.40952 18.5861 3.40511C18.5266 3.4007 18.4669 3.40805 18.4102 3.42674C18.3536 3.44542 18.3012 3.47508 18.256 3.51402L14.13 7.06602L10.043 4.72601C9.96064 4.67926 9.86579 4.65924 9.77156 4.66874C9.67733 4.67823 9.58838 4.71677 9.517 4.77901L5.149 8.57602C5.10389 8.61521 5.06694 8.66292 5.04027 8.71639C5.0136 8.76987 4.99772 8.82808 4.99354 8.8877C4.98936 8.94731 4.99696 9.00717 5.01592 9.06384C5.03487 9.12052 5.0648 9.17291 5.104 9.21802C5.1432 9.26312 5.1909 9.30007 5.24438 9.32675C5.29786 9.35342 5.35607 9.3693 5.41568 9.37348C5.4753 9.37766 5.53515 9.37005 5.59183 9.3511C5.6485 9.33215 5.70089 9.30221 5.746 9.26301H5.75Z" fill="currentColor"/>
</svg>
