<svg width="24" height="24" viewBox="0 0 24 24" fill="none" xmlns="http://www.w3.org/2000/svg">
<path id="Vector" d="M12.3754 1.83599C12.2659 1.75691 12.1342 1.71436 11.9991 1.71436C11.864 1.71436 11.7324 1.75691 11.6229 1.83599C11.0717 2.2337 9.83314 2.96056 8.28343 3.58542C6.732 4.21113 4.92 4.71427 3.21429 4.71427C3.04379 4.71427 2.88028 4.782 2.75972 4.90256C2.63916 5.02312 2.57143 5.18664 2.57143 5.35713V12.0017C2.57143 14.5963 4.03114 17.0083 5.86029 18.816C7.68857 20.622 9.99857 21.936 11.8886 22.2651L11.9991 22.284L12.1089 22.2651C13.9997 21.9351 16.3089 20.622 18.1371 18.816C19.9671 17.0083 21.4269 14.5963 21.4269 12.0017V5.35713C21.4269 5.18664 21.3591 5.02312 21.2386 4.90256C21.118 4.782 20.9545 4.71427 20.784 4.71427C19.0783 4.71427 17.2671 4.21113 15.7157 3.58542C14.1651 2.9597 12.9266 2.23285 12.3754 1.83599ZM3.85714 12.0017V5.98027C5.58429 5.87399 7.31314 5.36313 8.76429 4.7777C10.1254 4.22913 11.2783 3.59913 11.9991 3.1337C12.7191 3.59913 13.8729 4.22913 15.2349 4.7777C16.6851 5.36313 18.4149 5.87485 20.1411 5.98027V12.0017C20.1411 14.1188 18.9334 16.2214 17.2337 17.9006C15.5726 19.542 13.5471 20.6726 11.9991 20.9777C10.4511 20.6726 8.42486 19.542 6.76371 17.9006C5.064 16.2223 3.85714 14.1206 3.85714 12.0026M16.9474 8.81999C17.0081 8.76123 17.0566 8.6911 17.0902 8.6136C17.1237 8.5361 17.1417 8.45274 17.1431 8.36829C17.1444 8.28384 17.1291 8.19996 17.0981 8.12142C17.067 8.04288 17.0208 7.97123 16.962 7.91056C16.9032 7.84989 16.8331 7.80139 16.7556 7.76782C16.6781 7.73425 16.5948 7.71628 16.5103 7.71493C16.4259 7.71357 16.342 7.72887 16.2634 7.75993C16.1849 7.791 16.1132 7.83723 16.0526 7.89599L9.84343 13.9046L7.932 12.168C7.80497 12.0591 7.64049 12.004 7.4735 12.0144C7.30651 12.0249 7.15017 12.1 7.03769 12.2239C6.9252 12.3477 6.86544 12.5106 6.87111 12.6778C6.87677 12.845 6.9474 13.0034 7.068 13.1194L9.42514 15.2623C9.54603 15.3722 9.70422 15.4319 9.86757 15.4294C10.0309 15.4268 10.1872 15.3622 10.3046 15.2486L16.9474 8.81999Z" fill="currentColor"/>
</svg>
