<svg width="24" height="24" viewBox="0 0 24 24" fill="none" xmlns="http://www.w3.org/2000/svg">
<path id="Vector" d="M7.3 6.90001C7.2 6.80001 7.1 6.70001 7.1 6.50001C7.1 6.40001 7.1 6.30001 7.2 6.20001C7.3 6.10001 7.4 6.10001 7.5 6.10001H12.3C12.4 6.10001 12.5 6.10001 12.6 6.20001C12.7 6.30001 12.7 6.40001 12.7 6.50001C12.7 6.60001 12.7 6.70001 12.6 6.80001C12.6 6.90001 12.5 7.00001 12.4 7.00001H7.6C7.5 7.00001 7.3 6.90001 7.3 6.90001ZM11.3 12.9H7.6C7.5 12.9 7.4 12.9 7.3 13C7.2 13.1 7.2 13.2 7.2 13.3C7.2 13.4 7.2 13.5 7.3 13.6C7.4 13.7 7.5 13.7 7.6 13.7H11.3C11.4 13.7 11.5 13.7 11.6 13.6C11.7 13.5 11.7 13.4 11.7 13.3C11.7 13.2 11.7 13.1 11.6 13C11.5 12.9 11.4 12.9 11.3 12.9ZM7.6 10.4H13.6C13.7 10.4 13.8 10.4 13.9 10.3C14 10.2 14 10.1 14 9.90001C14 9.70001 14 9.70001 13.9 9.60001C13.8 9.50001 13.7 9.50001 13.6 9.50001H7.6C7.5 9.50001 7.4 9.50001 7.3 9.60001C7.2 9.70001 7.1 9.80001 7.1 9.90001C7.1 10 7.1 10.1 7.2 10.2C7.3 10.3 7.5 10.4 7.6 10.4ZM17.4 15.1C17.7 15.4 17.8 15.7 17.9 16.1C17.9 16.5 17.9 16.8 17.7 17.1C17.5 17.4 17.2 17.6 16.8 17.8C16.4 17.9 16.1 17.9 15.7 17.8C15.4 17.7 15.1 17.4 14.9 17.1C14.7 16.8 14.7 16.4 14.7 16C14.8 15.6 15 15.3 15.2 15.1C15.5 14.9 15.8 14.7 16.2 14.7C16.7 14.6 17.1 14.8 17.4 15.1ZM17 16.2C17 16.1 17 15.9 16.9 15.8C16.8 15.7 16.7 15.6 16.6 15.6C16.5 15.5 16.3 15.5 16.2 15.6C16.1 15.6 15.9 15.7 15.9 15.8C15.8 15.9 15.7 16 15.7 16.1V16.5C15.8 16.6 15.8 16.7 15.9 16.8C16 16.9 16.1 16.9 16.3 16.9C16.4 16.9 16.5 16.9 16.6 16.8C16.7 16.8 16.8 16.7 16.8 16.7C16.9 16.6 16.9 16.6 16.9 16.5C16.9 16.4 17 16.3 17 16.2ZM19.8 16.2C19.8 16.9 19.6 17.6 19.2 18.2C18.8 18.8 18.2 19.2 17.5 19.5V20.8C17.5 20.9 17.5 21 17.4 21.1C17.3 21.2 17.2 21.2 17.1 21.2C17 21.2 16.9 21.2 16.8 21.1C16.7 21 16.7 20.9 16.7 20.8V19.7H16.1V20.8C16.1 20.9 16.1 21 16 21.1C15.9 21.2 15.8 21.2 15.7 21.2C15.6 21.2 15.5 21.2 15.4 21.1C15.3 21 15.3 20.9 15.3 20.8V19.5C14.8 19.3 14.4 19.1 14.1 18.7H4.7C4.6 18.7 4.5 18.7 4.4 18.6C4.3 18.5 4.3 18.4 4.3 18.3V3.10001C4.3 3.00001 4.3 2.90001 4.4 2.80001C4.5 2.70001 4.6 2.70001 4.7 2.70001H18.5C18.6 2.70001 18.6 2.80001 18.6 2.80001L18.7 2.90001V13.6C19 13.9 19.3 14.3 19.5 14.8C19.7 15.3 19.8 15.7 19.8 16.2ZM13.2 17.8C12.9 17.1 12.8 16.4 12.9 15.7C13 15 13.3 14.3 13.9 13.8C14.4 13.3 15.1 12.9 15.8 12.8C16.5 12.7 17.3 12.8 17.9 13.1V3.60001H5.1V17.8H13.2ZM18.9 16.2C18.9 15.7 18.7 15.2 18.5 14.8C18.2 14.4 17.8 14 17.3 13.8C16.8 13.6 16.3 13.6 15.8 13.7C15.3 13.8 14.8 14 14.5 14.4C14.1 14.8 13.9 15.2 13.8 15.7C13.7 16.2 13.8 16.7 13.9 17.2C14.1 17.7 14.4 18.1 14.9 18.4C15.3 18.7 15.8 18.8 16.3 18.8C16.6 18.8 17 18.7 17.3 18.6C17.6 18.5 17.9 18.3 18.1 18C18.3 17.8 18.5 17.5 18.7 17.2C18.8 16.9 18.9 16.5 18.9 16.2Z" fill="currentColor"/>
</svg>
