<svg width="18" height="18" viewBox="0 0 18 18" fill="none" xmlns="http://www.w3.org/2000/svg">
<path id="Vector" d="M14.1 12.2C14 12.1 13.9 12 13.8 12C13.7 12 13.6 12 13.5 12.1L12.2 13.4L12.1 13.5V13.9C12.1 14 12.2 14 12.2 14L13.5 15.3C13.6 15.4 13.7 15.4 13.8 15.4C13.9 15.4 14 15.4 14.1 15.3L15.4 14C15.5 13.9 15.5 13.8 15.5 13.7C15.5 13.6 15.5 13.5 15.4 13.4L14.1 12.2ZM13.8 14.4L13.2 13.7L13.8 13.1L14.5 13.7L13.8 14.4ZM17.3 13.5V13C17.3 12.9 17.3 12.8 17.2 12.7V12.6C17.2 12.5 17.1 12.4 17.1 12.3C17.1 12.2 17 12.1 17 12C17 11.9 16.9 11.8 16.8 11.7C16.7 11.6 16.7 11.5 16.6 11.5L16.4 11.3L16.3 11.2C16.2 11.2 16.2 11.1 16.1 11C15.8 10.8 15.5 10.6 15.2 10.5C15 10.4 14.8 10.3 14.5 10.3C14.3 10.3 14 10.2 13.8 10.2C13.6 10.2 13.3 10.2 13.1 10.3L12.2 9.39997L16.9 4.69998L17 4.59998V4.19998C17 4.09998 16.9 4.09998 16.9 4.09998L14 1.19998C13.9 1.09998 13.7 0.999976 13.6 0.999976C13.5 0.999976 13.4 0.999975 13.3 1.09998L8.6 5.79998L7.7 4.99998C7.8 4.39998 7.8 3.69998 7.6 3.09998C7.4 2.49998 7 1.99998 6.5 1.49998C6 1.09998 5.4 0.799976 4.8 0.699976C4.2 0.599976 3.5 0.699976 2.9 0.999976C2.8 0.999976 2.8 0.999975 2.7 1.09998C2.7 1.19998 2.6 1.19998 2.6 1.29998V1.49998C2.6 1.59998 2.7 1.59998 2.7 1.69998L4.5 3.49998L3.5 4.59998L1.7 2.79998C1.6 2.69998 1.6 2.69998 1.5 2.69998H1.3C1.2 2.69998 1.2 2.69998 1.1 2.79998C1 2.89998 1 2.79998 0.9 2.89998C0.7 3.49998 0.6 4.19998 0.7 4.79998C0.8 5.39998 1.1 5.99998 1.5 6.49998C1.9 6.99998 2.5 7.39998 3.1 7.59998C3.7 7.79998 4.4 7.79998 5 7.69998L5.9 8.59998L2.7 11.8L2.6 11.9V12L1.3 16.2V16.4C1.3 16.5 1.3 16.5 1.4 16.6C1.4 16.7 1.5 16.7 1.6 16.7H1.9L6 15.5H6.1C6.1 15.5 6.2 15.5 6.2 15.4L9.4 12.2L10.3 13.1C10.3 13.3 10.2 13.6 10.2 13.8C10.2 14 10.2 14.3 10.3 14.5C10.3 14.7 10.4 14.9 10.5 15.2C10.6 15.5 10.8 15.8 11 16.1L11.2 16.3L11.4 16.5C11.5 16.6 11.6 16.6 11.7 16.7C11.8 16.8 11.9 16.8 12 16.9C12.1 17 12.2 17 12.3 17C12.4 17 12.5 17.1 12.6 17.1H12.7C12.8 17.1 12.9 17.1 13 17.2H14.4C14.5 17.2 14.5 17.2 14.6 17.1H14.7C14.8 17.1 14.9 17 15 17C15.9 16.6 16.5 16 16.9 15.1C16.9 15 17 14.9 17 14.8C17 14.7 17 14.7 17.1 14.6V13.8C17.3 13.7 17.3 13.6 17.3 13.5ZM13.6 2.09998L15.9 4.39998L14.3 5.99998L12 3.69998L13.6 2.09998ZM11.4 4.29998L13.7 6.59998L11.5 8.79998L9.2 6.49998L11.4 4.29998ZM2.3 15.7L3.2 13L4.1 13.9L5 14.9L2.3 15.7ZM5.9 14.4L3.6 12.1L6.5 9.19998L8.8 11.5L5.9 14.4ZM16.4 14.1V14.6C16.4 14.7 16.4 14.7 16.3 14.8C16.2 15.1 16 15.4 15.7 15.7C15.4 16 15.2 16.1 14.8 16.3C14.7 16.3 14.7 16.3 14.6 16.4H13.3C13.2 16.4 13.2 16.4 13.1 16.3H13C12.9 16.3 12.9 16.3 12.8 16.2C12.7 16.2 12.7 16.1 12.6 16.1C12.5 16.1 12.5 16 12.4 16C12.3 16 12.3 15.9 12.2 15.9L12 15.7L11.8 15.5C11.6 15.3 11.5 15.1 11.4 14.9C11.3 14.7 11.3 14.6 11.2 14.4C11.2 14.2 11.1 14.1 11.1 13.9C11.1 13.7 11.1 13.6 11.2 13.4C11.2 13.3 11.2 13.2 11.3 13.2V13C11.3 12.9 11.2 12.8 11.2 12.8L5.5 6.89998C5.4 6.79998 5.3 6.79998 5.3 6.79998H5.1C4.6 6.89998 4.2 6.89998 3.7 6.79998C3.3 6.79998 2.9 6.59998 2.6 6.29998C2.2 5.99998 2 5.69998 1.8 5.29998C1.6 4.79998 1.6 4.39998 1.6 3.99998L3.2 5.59998C3.3 5.69998 3.4 5.69998 3.5 5.69998C3.6 5.69998 3.7 5.69998 3.8 5.59998L5.5 3.89998L5.6 3.79998V3.39998C5.6 3.29998 5.6 3.19998 5.5 3.19998L4 1.59998C4.4 1.59998 4.9 1.59998 5.3 1.79998C5.6 1.99998 6 2.19998 6.3 2.59998C6.6 2.89998 6.8 3.29998 6.8 3.79998C6.9 4.19998 6.9 4.59998 6.8 4.99998V5.19998C6.8 5.29998 6.9 5.39998 6.9 5.39998L12.6 11.1C12.7 11.2 12.7 11.2 12.8 11.2H13C13.1 11.2 13.2 11.2 13.2 11.1C13.4 11.1 13.5 11 13.7 11C13.9 11 14.1 11 14.2 11.1C14.6 11.2 15 11.4 15.3 11.6L15.5 11.8C15.5 11.8 15.6 11.9 15.6 12C15.6 12.1 15.7 12.1 15.7 12.2C15.7 12.3 15.8 12.3 15.8 12.4C15.8 12.5 15.9 12.5 15.9 12.6C15.9 12.7 16 12.7 16 12.8V13.6C16.4 13.9 16.4 14 16.4 14.1Z" fill="currentColor"/>
</svg>
