<svg width="24" height="24" viewBox="0 0 24 24" fill="none" xmlns="http://www.w3.org/2000/svg">
<path id="Vector" d="M21.4 13.1L18.1 9.79999C18 9.79999 18 9.69999 17.9 9.69999H17.7C17.6 9.69999 17.6 9.69999 17.5 9.79999C17.4 9.79999 17.4 9.89999 17.3 9.89999L15.1 12.7L15 12.8L13.4 14.9L13.1 15.2C12.5 15.7 11.7 16 10.9 16C10.1 16 9.3 15.6 8.7 15.1C8.4 14.5 8 13.7 8 12.9C8 12.1 8.3 11.3 8.8 10.7L9.1 10.4L11.2 8.79999C11.2 8.79999 11.3 8.79999 11.3 8.69999L14.1 6.59999C14.2 6.59999 14.2 6.49999 14.2 6.39999C14.2 6.29999 14.3 6.29999 14.3 6.19999V5.99999C14.3 5.89999 14.2 5.89999 14.2 5.79999L10.9 2.49999C10.8 2.39999 10.7 2.39999 10.6 2.39999C10.5 2.39999 10.4 2.39999 10.3 2.49999L7.4 4.69999L5.7 5.99999C5.4 6.19999 5.1 6.49999 4.9 6.69999C3.7 7.99999 2.8 9.49999 2.5 11.2C2.2 12.9 2.3 14.7 3 16.3C3.7 17.9 4.8 19.3 6.2 20.2C7.6 21.2 9.3 21.7 11.1 21.7C12.3 21.7 13.4 21.5 14.5 21C15.6 20.6 16.5 19.9 17.3 19.1C17.6 18.8 17.8 18.6 18 18.3L19.3 16.7L21.5 13.9C21.6 13.8 21.6 13.7 21.6 13.6C21.6 13.3 21.5 13.2 21.4 13.1ZM10.5 3.59999L13 6.09999L11 7.69999L8.4 5.19999L10.5 3.59999ZM17.2 17.7C17 18 16.8 18.2 16.5 18.4C15 19.9 13.1 20.7 11 20.7C8.9 20.7 7 19.9 5.5 18.4C4.1 17 3.3 15 3.3 13C3.3 10.9 4.1 8.99999 5.6 7.49999C5.8 7.19999 6.1 6.99999 6.3 6.79999L7.6 5.79999L10.1 8.29999L8.5 9.59999C8.4 9.69999 8.2 9.79999 8.1 9.99999C7.4 10.8 7 11.8 7.1 12.9C7.2 14 7.6 15 8.3 15.7C9.1 16.5 10.1 16.9 11.1 16.9C12.1 16.9 13.2 16.6 14 15.9C14.1 15.8 14.2 15.6 14.4 15.5L15.7 13.9L16.1 14.3L18.3 16.5L17.2 17.7ZM18.8 15.6L16.3 13.1L17.9 11L20.5 13.5L18.8 15.6ZM15.2 8.99999C15.2 8.89999 15.2 8.89999 15.1 8.79999C15 8.69999 15.1 8.69999 15.1 8.59999L16.1 5.39999C16.1 5.29999 16.2 5.19999 16.2 5.19999C16.3 5.09999 16.3 5.09999 16.4 5.09999H16.7C16.8 5.09999 16.9 5.19999 16.9 5.19999L17.9 6.19999L18.7 3.79999C18.7 3.69999 18.8 3.59999 18.9 3.49999C19 3.49999 19 3.49999 19.1 3.39999H19.3C19.4 3.39999 19.4 3.49999 19.5 3.49999C19.6 3.49999 19.6 3.59999 19.6 3.69999C19.6 3.79999 19.6 3.79999 19.7 3.89999V4.09999L18.7 7.29999C18.7 7.39999 18.6 7.49999 18.6 7.49999C18.5 7.59999 18.5 7.59999 18.4 7.59999H18.1C18 7.59999 17.9 7.49999 17.9 7.49999L16.9 6.49999L16.1 8.89999C16 8.99999 16 9.09999 15.9 9.09999C15.8 9.19999 15.7 9.19999 15.6 9.19999H15.4C15.3 9.19999 15.3 9.09999 15.2 9.09999V8.99999Z" fill="currentColor"/>
</svg>
