<svg width="24" height="24" viewBox="0 0 24 24" fill="none" xmlns="http://www.w3.org/2000/svg">
<path id="Vector" d="M19.7 4.30001C19.6 4.20001 19.5 4.20001 19.4 4.20001H13.4C13.3 4.20001 13.2 4.20001 13.1 4.30001C13 4.40001 13 4.50001 13 4.60001V10.6C13 10.7 13 10.8 13.1 10.9C13.2 11 13.3 11 13.4 11H19.4C19.5 11 19.6 11 19.7 10.9C19.8 10.8 19.8 10.7 19.8 10.6V4.60001C19.8 4.50001 19.8 4.40001 19.7 4.30001ZM18.9 10.1H13.9V5.10001H18.9V10.1ZM11 13.2C11 13.1 10.9 13.1 10.9 13.1L10.8 13H4.4C4.3 13 4.3 13.1 4.3 13.1L4.2 13.2V19.4C4.2 19.5 4.2 19.6 4.3 19.7C4.4 19.8 4.5 19.8 4.6 19.8H10.8C10.9 19.8 10.9 19.7 10.9 19.7L11 19.6V13.4C11.1 13.3 11 13.3 11 13.2ZM10.1 18.9H5.1V13.9H10.1V18.9ZM19.8 13.2C19.8 13.1 19.7 13.1 19.7 13.1L19.6 13H13.2C13.1 13 13.1 13.1 13.1 13.1L13 13.2V19.4C13 19.5 13 19.6 13.1 19.7C13.2 19.8 13.3 19.8 13.4 19.8H19.6C19.7 19.8 19.7 19.7 19.7 19.7L19.8 19.6V13.2ZM18.9 18.9H13.9V13.9H18.9V18.9ZM10.9 4.30001C10.8 4.20001 10.7 4.20001 10.6 4.20001H4.6C4.5 4.20001 4.4 4.20001 4.3 4.30001C4.2 4.40001 4.2 4.50001 4.2 4.60001V10.6C4.2 10.7 4.2 10.8 4.3 10.9C4.4 11 4.5 11 4.6 11H10.6C10.7 11 10.8 11 10.9 10.9C11 10.8 11 10.7 11 10.6V4.60001C11.1 4.50001 11 4.40001 10.9 4.30001ZM10.1 10.1H5.1V5.10001H10.1V10.1Z" fill="currentColor"/>
</svg>
