<svg width="18" height="18" viewBox="0 0 18 18" fill="none" xmlns="http://www.w3.org/2000/svg">
<path id="Vector" d="M9 12.721C8.51069 12.7217 8.02604 12.6261 7.5737 12.4395C7.12137 12.2529 6.71021 11.979 6.36371 11.6336C6.01721 11.2881 5.74215 10.8777 5.55423 10.426C5.36631 9.97417 5.26922 9.4898 5.2685 9.00049C5.26778 8.51119 5.36344 8.02653 5.55002 7.57419C5.7366 7.12186 6.01045 6.7107 6.35593 6.3642C6.70141 6.0177 7.11176 5.74264 7.56354 5.55472C8.01532 5.36681 8.49969 5.26971 8.989 5.26899C9.96656 5.2835 10.8993 5.68165 11.5859 6.37756C12.2726 7.07348 12.6583 8.01141 12.6597 8.98908C12.6611 9.96675 12.2783 10.9058 11.5936 11.6038C10.909 12.3017 9.97751 12.7036 9 12.721ZM9 6.18099C8.63039 6.18198 8.2646 6.25575 7.92351 6.3981C7.58241 6.54045 7.2727 6.7486 7.01204 7.01064C6.75139 7.27269 6.5449 7.58351 6.40437 7.92536C6.26384 8.26721 6.19201 8.63339 6.193 9.00299C6.19398 9.3726 6.26776 9.73839 6.41011 10.0795C6.55246 10.4206 6.7606 10.7303 7.02265 10.9909C7.2847 11.2516 7.59552 11.4581 7.93737 11.5986C8.27921 11.7392 8.6454 11.811 9.015 11.81C9.38467 11.809 9.75053 11.7352 10.0917 11.5928C10.4328 11.4505 10.7426 11.2423 11.0033 10.9802C11.264 10.7181 11.4705 10.4072 11.6111 10.0653C11.7516 9.72341 11.8235 9.35716 11.8225 8.98749C11.8215 8.61782 11.7477 8.25196 11.6054 7.91081C11.463 7.56965 11.2548 7.25988 10.9927 6.99918C10.7306 6.73848 10.4197 6.53196 10.0778 6.3914C9.73592 6.25084 9.36967 6.18001 9 6.18099ZM6.452 17.65C6.3721 17.65 6.29355 17.6293 6.224 17.59L2.982 15.713C2.87708 15.6532 2.80016 15.5543 2.7681 15.4378C2.73605 15.3214 2.75147 15.1971 2.811 15.092L3.832 13.322C3.33863 12.7361 2.94964 12.0697 2.682 11.352H0.627C0.567165 11.352 0.507916 11.3402 0.452648 11.3173C0.397379 11.2943 0.347176 11.2607 0.304912 11.2184C0.262649 11.176 0.229155 11.1257 0.206348 11.0704C0.183541 11.0151 0.171869 10.9558 0.172 10.896V7.14399C0.172 7.02332 0.219937 6.90759 0.305267 6.82226C0.390596 6.73693 0.506327 6.68899 0.627 6.68899H2.67C2.93211 5.96959 3.31418 5.29978 3.8 4.70799L2.773 2.92599C2.71293 2.82151 2.69656 2.69752 2.72746 2.58103C2.75836 2.46453 2.83404 2.36496 2.938 2.30399L6.188 0.428992C6.2925 0.368961 6.41642 0.352438 6.533 0.382992C6.59194 0.397325 6.64738 0.423399 6.696 0.459654C6.74463 0.495908 6.78544 0.541599 6.816 0.593992L7.836 2.36199C8.59184 2.2326 9.36416 2.2326 10.12 2.36199L11.15 0.575992C11.2108 0.471858 11.3103 0.395976 11.4268 0.364882C11.5433 0.333788 11.6674 0.350002 11.772 0.409992L15.007 2.27799C15.0602 2.30656 15.1073 2.34544 15.1453 2.39237C15.1834 2.4393 15.2117 2.49334 15.2286 2.55133C15.2456 2.60933 15.2508 2.67011 15.244 2.73015C15.2372 2.79018 15.2185 2.84826 15.189 2.90099L14.168 4.66799C14.6615 5.25462 15.0498 5.92211 15.316 6.64099H17.373C17.4328 6.64073 17.4921 6.65232 17.5474 6.67509C17.6028 6.69786 17.653 6.73136 17.6953 6.77367C17.7376 6.81597 17.7711 6.86624 17.7939 6.92156C17.8167 6.97688 17.8283 7.03617 17.828 7.09599V10.846C17.828 10.9667 17.7801 11.0824 17.6947 11.1677C17.6094 11.2531 17.4937 11.301 17.373 11.301H15.326C15.0631 12.0213 14.68 12.6918 14.193 13.284L15.223 15.068C15.2674 15.146 15.2879 15.2354 15.2821 15.3249C15.2762 15.4145 15.2442 15.5004 15.19 15.572C15.1535 15.6192 15.108 15.6587 15.056 15.688L11.809 17.565C11.7571 17.5949 11.6998 17.6143 11.6403 17.622C11.5809 17.6298 11.5205 17.6257 11.4627 17.6101C11.4048 17.5945 11.3506 17.5677 11.3031 17.5311C11.2557 17.4945 11.2159 17.449 11.186 17.397L10.166 15.632C9.41007 15.7602 8.63793 15.7602 7.882 15.632L6.854 17.416C6.81404 17.4875 6.7557 17.5469 6.68501 17.5883C6.61433 17.6296 6.53388 17.6502 6.452 17.65ZM3.832 15.152L6.293 16.574L7.256 14.903C7.3046 14.8193 7.37853 14.7531 7.46713 14.7141C7.55574 14.6751 7.65443 14.6653 7.749 14.686C8.589 14.873 9.459 14.873 10.298 14.686C10.3927 14.6633 10.4921 14.672 10.5814 14.7108C10.6707 14.7496 10.7449 14.8163 10.793 14.901L11.749 16.557L14.209 15.136L13.245 13.466C13.1974 13.3823 13.1774 13.2858 13.1879 13.1901C13.1983 13.0944 13.2386 13.0045 13.303 12.933C13.8813 12.2971 14.3128 11.542 14.567 10.721C14.5943 10.6255 14.6521 10.5416 14.7315 10.482C14.8109 10.4224 14.9077 10.3904 15.007 10.391H16.922V7.55099H14.983C14.8862 7.55036 14.7922 7.51903 14.7144 7.46153C14.6366 7.40402 14.579 7.3233 14.55 7.23099C14.2936 6.41291 13.8584 5.66211 13.276 5.03299C13.2102 4.96149 13.1689 4.87087 13.1581 4.77431C13.1473 4.67774 13.1676 4.58025 13.216 4.49599L14.173 2.83799L11.713 1.41799L10.748 3.08799C10.7 3.17204 10.6263 3.23852 10.5378 3.27774C10.4493 3.31696 10.3505 3.32686 10.256 3.30599C9.41628 3.12217 8.5464 3.12524 7.708 3.31499C7.61313 3.33648 7.51388 3.32701 7.42479 3.28795C7.3357 3.2489 7.26148 3.18232 7.213 3.09799L6.248 1.44299L3.788 2.86299L4.751 4.53299C4.79979 4.61665 4.82049 4.71375 4.81005 4.81004C4.79961 4.90632 4.75859 4.99673 4.693 5.06799C4.11583 5.70376 3.68535 6.45854 3.432 7.27899C3.40325 7.37262 3.34494 7.45441 3.26579 7.5121C3.18664 7.56979 3.09093 7.60028 2.993 7.59899H1.083V10.441H3.011C3.10742 10.4413 3.20127 10.4721 3.27907 10.5291C3.35687 10.586 3.41461 10.6662 3.444 10.758C3.70478 11.5776 4.14282 12.3297 4.727 12.961C4.79313 13.0321 4.83466 13.1226 4.84546 13.2191C4.85627 13.3156 4.83577 13.413 4.787 13.497L3.832 15.152Z" fill="currentColor"/>
</svg>
